<svg
  xmlns="http://www.w3.org/2000/svg"
  viewBox="0 0 1280 800"
  width="1280" height="800"
  role="img"
  aria-label="Croissan Studio brand kit at a glance — mark, wordmarks, color tokens, typography, and component vocabulary"
  font-family="-apple-system, BlinkMacSystemFont, 'Segoe UI', Roboto, Helvetica, Arial, sans-serif"
>
  <defs>
    <symbol id="mark" viewBox="0 0 36 36">
      <ellipse cx="22.0277" cy="21.5989" rx="11.4081" ry="8.91908"
        transform="rotate(135 22.0277 21.5989)" fill="currentColor"/>
      <path d="M2.13333 21.5215C2.27316 21.1417 2.43806 20.7593 2.6223 20.3737C3.39661 18.7529 4.38451 17.3468 5.62376 16.5249C6.40009 16.0101 7.25471 15.74 8.15856 15.7683C6.8603 14.62 4.64027 14.7881 3.01991 16.2162C1.29654 17.735 0.901976 20.1059 2.13333 21.5215Z" fill="currentColor"/>
      <path d="M9.66614 17.0816C7.56193 18.5015 6.04834 20.914 5.69055 23.739C5.45599 25.5909 5.49735 27.4379 6.0701 29.0514C5.88245 28.9404 5.69209 28.8131 5.49905 28.6684C2.11363 26.1311 1.96103 23.8798 3.44766 20.768C4.93428 17.6563 7.0411 15.8275 9.66068 17.079C9.6625 17.0799 9.66432 17.0808 9.66614 17.0816Z" fill="currentColor"/>
      <path d="M13.3717 16.6698C10.2173 21.1627 9.87752 26.8758 13.314 30.3124C14.3617 31.36 15.6209 32.0567 16.9926 32.4296C15.8818 32.8947 14.5023 33.063 12.7995 32.8473C7.22606 32.1414 6.033 28.3154 6.59809 23.8538C7.09266 19.9489 9.98303 17.0049 13.3717 16.6698Z" fill="currentColor"/>
      <path d="M21.911 1.74382C21.5312 1.88365 21.1489 2.04855 20.7632 2.23279C19.1424 3.0071 17.7364 3.995 16.9145 5.23425C16.3996 6.01058 16.1295 6.8652 16.1578 7.76904C15.0096 6.47078 15.1776 4.25075 16.6057 2.63039C18.1246 0.907029 20.4955 0.512466 21.911 1.74382Z" fill="currentColor"/>
      <path d="M17.4712 9.27661C18.8911 7.1724 21.3036 5.65882 24.1285 5.30102C25.9805 5.06647 27.8275 5.10783 29.4409 5.68057C29.33 5.49293 29.2027 5.30257 29.058 5.10953C26.5206 1.72411 24.2694 1.57151 21.1576 3.05814C18.0458 4.54476 16.2171 6.65157 17.4686 9.27115C17.4694 9.27297 17.4703 9.27479 17.4712 9.27661Z" fill="currentColor"/>
      <path d="M17.0594 12.9823C21.5523 9.82785 27.2655 9.48807 30.702 12.9246C31.7496 13.9722 32.4463 15.2314 32.8193 16.6031C33.2843 15.4923 33.4526 14.1129 33.2369 12.4101C32.531 6.83662 28.7051 5.64356 24.2434 6.20864C20.3385 6.70321 17.3945 9.59358 17.0594 12.9823Z" fill="currentColor"/>
    </symbol>
  </defs>

  <!-- Canvas — paper -->
  <rect width="1280" height="720" fill="#FAFAFB"/>

  <!-- ============================================================
       HEADER — mark + bilingual wordmark, centered
       ============================================================ -->
  <text x="640" y="60" fill="#150E47" font-size="11" font-weight="600"
        letter-spacing="3" opacity="0.45" text-anchor="middle">
    BRAND KIT — STUDIO IDENTITY
  </text>

  <!-- Big mark -->
  <use href="#mark" x="608" y="84" width="64" height="64" color="#2727CA"/>

  <!-- Wordmark RU (primary) -->
  <text x="640" y="190" fill="#150E47" font-size="36" font-weight="800"
        letter-spacing="-1" text-anchor="middle">Круассан Студио</text>

  <!-- Wordmark EN (secondary) -->
  <text x="640" y="218" fill="#150E47" font-size="15" font-weight="500"
        letter-spacing="0.5" opacity="0.5" text-anchor="middle">Croissan Studio</text>

  <!-- Section divider -->
  <line x1="80" y1="262" x2="1200" y2="262" stroke="#150E47" stroke-opacity="0.08"/>

  <!-- ============================================================
       01 — SURFACES (5 tiles)
       ============================================================ -->
  <text x="80" y="298" fill="#150E47" font-size="10" font-weight="600"
        letter-spacing="2" opacity="0.45"
        font-family="ui-monospace, SFMono-Regular, Menlo, monospace">01 — SURFACES</text>

  <g transform="translate(80, 312)">
    <!-- cobalt -->
    <rect x="0"   y="0" width="216" height="84" rx="10" fill="#2727CA"/>
    <text x="14" y="76" fill="#ffffff" font-size="10" font-weight="500"
          font-family="ui-monospace, SFMono-Regular, Menlo, monospace" opacity="0.85">#2727CA</text>
    <text x="14" y="22" fill="#ffffff" font-size="10" font-weight="600"
          letter-spacing="1.5" opacity="0.55"
          font-family="ui-monospace, SFMono-Regular, Menlo, monospace">BRAND</text>

    <!-- paper -->
    <rect x="232" y="0" width="216" height="84" rx="10" fill="#FFFFFF" stroke="#150E47" stroke-opacity="0.08"/>
    <text x="246" y="76" fill="#150E47" font-size="10" font-weight="500"
          font-family="ui-monospace, SFMono-Regular, Menlo, monospace" opacity="0.6">#FAFAFB</text>
    <text x="246" y="22" fill="#150E47" font-size="10" font-weight="600"
          letter-spacing="1.5" opacity="0.45"
          font-family="ui-monospace, SFMono-Regular, Menlo, monospace">PAPER</text>

    <!-- ink -->
    <rect x="464" y="0" width="216" height="84" rx="10" fill="#0E0E14"/>
    <text x="478" y="76" fill="#ffffff" font-size="10" font-weight="500"
          font-family="ui-monospace, SFMono-Regular, Menlo, monospace" opacity="0.85">#0E0E14</text>
    <text x="478" y="22" fill="#ffffff" font-size="10" font-weight="600"
          letter-spacing="1.5" opacity="0.55"
          font-family="ui-monospace, SFMono-Regular, Menlo, monospace">INK</text>

    <!-- graphite -->
    <rect x="696" y="0" width="216" height="84" rx="10" fill="#252527"/>
    <text x="710" y="76" fill="#ffffff" font-size="10" font-weight="500"
          font-family="ui-monospace, SFMono-Regular, Menlo, monospace" opacity="0.85">#252527</text>
    <text x="710" y="22" fill="#ffffff" font-size="10" font-weight="600"
          letter-spacing="1.5" opacity="0.55"
          font-family="ui-monospace, SFMono-Regular, Menlo, monospace">GRAPHITE</text>

    <!-- error -->
    <rect x="928" y="0" width="192" height="84" rx="10" fill="#E53935"/>
    <text x="942" y="76" fill="#ffffff" font-size="10" font-weight="500"
          font-family="ui-monospace, SFMono-Regular, Menlo, monospace" opacity="0.85">#E53935</text>
    <text x="942" y="22" fill="#ffffff" font-size="10" font-weight="600"
          letter-spacing="1.5" opacity="0.55"
          font-family="ui-monospace, SFMono-Regular, Menlo, monospace">ERROR</text>
  </g>

  <line x1="80" y1="430" x2="1200" y2="430" stroke="#150E47" stroke-opacity="0.08"/>

  <!-- ============================================================
       02 — TYPOGRAPHY (three specimens, side by side)
       ============================================================ -->
  <text x="80" y="466" fill="#150E47" font-size="10" font-weight="600"
        letter-spacing="2" opacity="0.45"
        font-family="ui-monospace, SFMono-Regular, Menlo, monospace">02 — TYPOGRAPHY</text>

  <g transform="translate(80, 484)">
    <!-- Right Grotesk -->
    <text x="0" y="56" fill="#150E47" font-size="84" font-weight="800"
          letter-spacing="-3">Aa</text>
    <text x="0" y="86" fill="#150E47" font-size="13" font-weight="700">Right Grotesk</text>
    <text x="0" y="104" fill="#150E47" font-size="11" font-weight="500" opacity="0.55">
      Display · web H1 only · 80–122 px
    </text>

    <!-- Golos Text -->
    <text x="380" y="56" fill="#150E47" font-size="64" font-weight="700"
          letter-spacing="-2">Aa</text>
    <text x="380" y="86" fill="#150E47" font-size="13" font-weight="700">Golos Text</text>
    <text x="380" y="104" fill="#150E47" font-size="11" font-weight="500" opacity="0.55">
      Body · sub-headings · slides · 14–48 px
    </text>

    <!-- Geist Mono -->
    <text x="760" y="56" fill="#150E47" font-size="48" font-weight="500"
          font-family="ui-monospace, SFMono-Regular, Menlo, monospace">{ }</text>
    <text x="760" y="86" fill="#150E47" font-size="13" font-weight="700">Geist Mono</text>
    <text x="760" y="104" fill="#150E47" font-size="11" font-weight="500" opacity="0.55">
      Code · page numbers · tabular
    </text>
  </g>

  <line x1="80" y1="612" x2="1200" y2="612" stroke="#150E47" stroke-opacity="0.08"/>

  <!-- ============================================================
       03 — COMPONENTS (pill row)
       ============================================================ -->
  <text x="80" y="648" fill="#150E47" font-size="10" font-weight="600"
        letter-spacing="2" opacity="0.45"
        font-family="ui-monospace, SFMono-Regular, Menlo, monospace">03 — COMPONENTS</text>

  <g transform="translate(80, 660)">
    <!-- pill.dark -->
    <rect x="0" y="0" width="116" height="36" rx="18" fill="#0E0E14"/>
    <text x="58" y="23" fill="#ffffff" font-size="13" font-weight="500"
          text-anchor="middle">pill.dark</text>

    <!-- pill.light -->
    <rect x="128" y="0" width="116" height="36" rx="18" fill="#FFFFFF" stroke="#2727CA" stroke-width="1"/>
    <text x="186" y="23" fill="#2727CA" font-size="13" font-weight="500"
          text-anchor="middle">pill.light</text>

    <!-- pill.outline -->
    <rect x="256" y="0" width="124" height="36" rx="18" fill="none"
          stroke="#150E47" stroke-opacity="0.45" stroke-width="1"/>
    <text x="318" y="23" fill="#150E47" font-size="13" font-weight="500"
          text-anchor="middle">pill.outline</text>

    <!-- pill.soft -->
    <rect x="392" y="0" width="116" height="36" rx="18" fill="#3D3DE0"/>
    <text x="450" y="23" fill="#ffffff" font-size="13" font-weight="500"
          text-anchor="middle">pill.soft</text>

    <!-- pill.deep -->
    <rect x="520" y="0" width="116" height="36" rx="18" fill="#1F1FA8"/>
    <text x="578" y="23" fill="#ffffff" font-size="13" font-weight="500"
          text-anchor="middle">pill.deep</text>

    <!-- mark anchor (right side) — same croissant in cobalt to round things out -->
    <use href="#mark" x="760" y="-30" width="96" height="96" color="#2727CA"/>
  </g>
</svg>
