<svg width="282" height="73" viewBox="0 0 282 73" fill="none" xmlns="http://www.w3.org/2000/svg">
<g opacity="0.8">
<path d="M19.861 0.830078H0.638672V20.484H19.861V0.830078Z" fill="#2A2459"/>
<path d="M71.0901 0.830078H51.8743V53.1828H45.469V0.830078H26.2532V72.8234H42.2598V72.8301H61.4822V72.8234H71.0901V0.830078Z" fill="#2A2459"/>
<path d="M19.861 26.9998H0.638672V72.8234H19.861V26.9998Z" fill="#2A2459"/>
<path d="M111.454 13.5912L104.458 26.89C103.785 28.1703 102.971 29.1385 102.016 29.7946C101.077 30.4508 100.052 30.7789 98.9408 30.7789C98.0799 30.7789 97.1878 30.5868 96.2643 30.2027L97.1799 27.2501C97.8373 27.4582 98.3851 27.5622 98.8234 27.5622C99.2929 27.5622 99.7155 27.4502 100.091 27.2261C100.467 26.9861 100.811 26.618 101.124 26.1219L101.265 25.9298L94.7852 13.5912H98.8468L103.214 22.6171L107.721 13.5912H111.454Z" fill="#2A2459"/>
<path d="M128.335 13.5912V30.3948H124.531V23.5053H117.065V30.3948H113.262V13.5912H117.065V20.2166H124.531V13.5912H128.335Z" fill="#2A2459"/>
<path d="M132.452 13.5912H136.232V24.5375L144.074 13.5912H147.643V30.3948H143.886V19.4725L136.044 30.3948H132.452V13.5912Z" fill="#2A2459"/>
<path d="M163.121 21.6329C164.123 21.937 164.89 22.4331 165.422 23.1212C165.954 23.8094 166.22 24.6576 166.22 25.6658C166.22 27.1541 165.665 28.3143 164.553 29.1465C163.458 29.9787 161.885 30.3948 159.834 30.3948H151.734V13.5912H159.388C161.298 13.5912 162.785 13.9673 163.849 14.7195C164.913 15.4716 165.446 16.5439 165.446 17.9361C165.446 18.7683 165.242 19.5045 164.835 20.1446C164.428 20.7687 163.857 21.2648 163.121 21.6329ZM155.514 20.5527H159.06C159.889 20.5527 160.515 20.3847 160.938 20.0486C161.36 19.6965 161.572 19.1844 161.572 18.5123C161.572 17.8561 161.353 17.352 160.914 16.9999C160.492 16.6479 159.873 16.4718 159.06 16.4718H155.514V20.5527ZM159.693 27.5142C161.478 27.5142 162.37 26.794 162.37 25.3537C162.37 23.9614 161.478 23.2653 159.693 23.2653H155.514V27.5142H159.693Z" fill="#2A2459"/>
<path d="M181.953 27.2741V30.3948H169.228V13.5912H181.648V16.7119H173.008V20.3607H180.638V23.3853H173.008V27.2741H181.953Z" fill="#2A2459"/>
<path d="M192.139 13.5912C193.595 13.5912 194.855 13.8393 195.919 14.3354C196.999 14.8315 197.829 15.5356 198.408 16.4478C198.987 17.36 199.276 18.4403 199.276 19.6885C199.276 20.9208 198.987 22.001 198.408 22.9292C197.829 23.8414 196.999 24.5455 195.919 25.0416C194.855 25.5217 193.595 25.7618 192.139 25.7618H188.829V30.3948H185.025V13.5912H192.139ZM191.928 22.5931C193.07 22.5931 193.939 22.3451 194.534 21.849C195.129 21.3369 195.426 20.6167 195.426 19.6885C195.426 18.7443 195.129 18.0242 194.534 17.5281C193.939 17.0159 193.07 16.7599 191.928 16.7599H188.829V22.5931H191.928Z" fill="#2A2459"/>
<path d="M209.786 30.6828C208.111 30.6828 206.593 30.3148 205.231 29.5786C203.885 28.8264 202.821 27.7942 202.038 26.4819C201.271 25.1537 200.888 23.6574 200.888 21.993C200.888 20.3286 201.271 18.8403 202.038 17.5281C202.821 16.1998 203.885 15.1676 205.231 14.4314C206.593 13.6792 208.119 13.3032 209.809 13.3032C211.234 13.3032 212.517 13.5592 213.66 14.0713C214.818 14.5834 215.788 15.3196 216.571 16.2798L214.129 18.5843C213.018 17.272 211.641 16.6159 209.997 16.6159C208.98 16.6159 208.072 16.8479 207.274 17.312C206.476 17.7601 205.849 18.3922 205.396 19.2084C204.957 20.0246 204.738 20.9528 204.738 21.993C204.738 23.0332 204.957 23.9614 205.396 24.7776C205.849 25.5938 206.476 26.2339 207.274 26.698C208.072 27.1461 208.98 27.3701 209.997 27.3701C211.641 27.3701 213.018 26.706 214.129 25.3777L216.571 27.6822C215.788 28.6584 214.818 29.4026 213.66 29.9147C212.501 30.4268 211.21 30.6828 209.786 30.6828Z" fill="#2A2459"/>
<path d="M219.05 13.5912H222.83V24.5375L230.671 13.5912H234.24V30.3948H230.484V19.4725L222.642 30.3948H219.05V13.5912Z" fill="#2A2459"/>
<path d="M250.893 16.7599H245.634V30.3948H241.877V16.7599H236.642V13.5912H250.893V16.7599Z" fill="#2A2459"/>
<path d="M266.006 27.2741V30.3948H253.281V13.5912H265.701V16.7119H257.061V20.3607H264.691V23.3853H257.061V27.2741H266.006Z" fill="#2A2459"/>
<path d="M281.639 16.7599H276.38V30.3948H272.623V16.7599H267.388V13.5912H281.639V16.7599Z" fill="#2A2459"/>
<path d="M96.6164 42.8293H100.396V53.7756L108.238 42.8293H111.807V59.6328H108.05V48.7105L100.209 59.6328H96.6164V42.8293Z" fill="#2A2459"/>
<path d="M130.971 42.8293V59.6328H127.168V52.7433H119.702V59.6328H115.899V42.8293H119.702V49.4547H127.168V42.8293H130.971Z" fill="#2A2459"/>
<path d="M150.162 42.8293V59.6328H146.358V52.7433H138.892V59.6328H135.089V42.8293H138.892V49.4547H146.358V42.8293H150.162Z" fill="#2A2459"/>
<path d="M162.121 59.9209C160.415 59.9209 158.873 59.5448 157.496 58.7926C156.134 58.0405 155.062 57.0082 154.279 55.696C153.512 54.3677 153.129 52.8794 153.129 51.231C153.129 49.5827 153.512 48.1024 154.279 46.7901C155.062 45.4618 156.134 44.4216 157.496 43.6694C158.873 42.9173 160.415 42.5412 162.121 42.5412C163.827 42.5412 165.361 42.9173 166.723 43.6694C168.084 44.4216 169.157 45.4618 169.939 46.7901C170.722 48.1024 171.113 49.5827 171.113 51.231C171.113 52.8794 170.722 54.3677 169.939 55.696C169.157 57.0082 168.084 58.0405 166.723 58.7926C165.361 59.5448 163.827 59.9209 162.121 59.9209ZM162.121 56.6082C163.091 56.6082 163.968 56.3841 164.751 55.936C165.533 55.4719 166.144 54.8318 166.582 54.0156C167.036 53.1994 167.263 52.2712 167.263 51.231C167.263 50.1908 167.036 49.2626 166.582 48.4464C166.144 47.6303 165.533 46.9981 164.751 46.55C163.968 46.0859 163.091 45.8539 162.121 45.8539C161.151 45.8539 160.274 46.0859 159.492 46.55C158.709 46.9981 158.091 47.6303 157.637 48.4464C157.198 49.2626 156.979 50.1908 156.979 51.231C156.979 52.2712 157.198 53.1994 157.637 54.0156C158.091 54.8318 158.709 55.4719 159.492 55.936C160.274 56.3841 161.151 56.6082 162.121 56.6082Z" fill="#2A2459"/>
<path d="M189.022 42.8293V59.6328H185.242V45.9979H177.823V59.6328H174.043V42.8293H189.022Z" fill="#2A2459"/>
<path d="M200.937 59.9209C199.231 59.9209 197.69 59.5448 196.312 58.7926C194.951 58.0405 193.878 57.0082 193.096 55.696C192.329 54.3677 191.945 52.8794 191.945 51.231C191.945 49.5827 192.329 48.1024 193.096 46.7901C193.878 45.4618 194.951 44.4216 196.312 43.6694C197.69 42.9173 199.231 42.5412 200.937 42.5412C202.644 42.5412 204.177 42.9173 205.539 43.6694C206.901 44.4216 207.973 45.4618 208.756 46.7901C209.538 48.1024 209.929 49.5827 209.929 51.231C209.929 52.8794 209.538 54.3677 208.756 55.696C207.973 57.0082 206.901 58.0405 205.539 58.7926C204.177 59.5448 202.644 59.9209 200.937 59.9209ZM200.937 56.6082C201.908 56.6082 202.784 56.3841 203.567 55.936C204.35 55.4719 204.96 54.8318 205.398 54.0156C205.852 53.1994 206.079 52.2712 206.079 51.231C206.079 50.1908 205.852 49.2626 205.398 48.4464C204.96 47.6303 204.35 46.9981 203.567 46.55C202.784 46.0859 201.908 45.8539 200.937 45.8539C199.967 45.8539 199.091 46.0859 198.308 46.55C197.525 46.9981 196.907 47.6303 196.453 48.4464C196.015 49.2626 195.796 50.1908 195.796 51.231C195.796 52.2712 196.015 53.1994 196.453 54.0156C196.907 54.8318 197.525 55.4719 198.308 55.936C199.091 56.3841 199.967 56.6082 200.937 56.6082Z" fill="#2A2459"/>
<path d="M227.051 42.8293V59.6328H223.295V45.9979H217.66L217.543 49.5027C217.464 51.8872 217.276 53.8236 216.979 55.3119C216.682 56.7842 216.181 57.9204 215.477 58.7206C214.788 59.5048 213.817 59.8969 212.565 59.8969C212.049 59.8969 211.423 59.8088 210.687 59.6328L210.922 56.3441C211.125 56.4081 211.352 56.4401 211.603 56.4401C212.51 56.4401 213.144 55.896 213.504 54.8078C213.864 53.7035 214.091 51.9832 214.185 49.6467L214.42 42.8293H227.051Z" fill="#2A2459"/>
<path d="M231.156 42.8293H234.936V53.7756L242.777 42.8293H246.346V59.6328H242.589V48.7105L234.748 59.6328H231.156V42.8293Z" fill="#2A2459"/>
<path d="M258.209 59.9209C256.534 59.9209 255.016 59.5528 253.654 58.8166C252.308 58.0645 251.244 57.0322 250.461 55.72C249.694 54.3917 249.311 52.8954 249.311 51.231C249.311 49.5667 249.694 48.0784 250.461 46.7661C251.244 45.4378 252.308 44.4056 253.654 43.6694C255.016 42.9173 256.542 42.5412 258.232 42.5412C259.657 42.5412 260.94 42.7972 262.083 43.3094C263.241 43.8215 264.212 44.5576 264.994 45.5178L262.552 47.8223C261.441 46.51 260.064 45.8539 258.42 45.8539C257.403 45.8539 256.495 46.0859 255.697 46.55C254.899 46.9981 254.273 47.6303 253.819 48.4464C253.38 49.2626 253.161 50.1908 253.161 51.231C253.161 52.2712 253.38 53.1994 253.819 54.0156C254.273 54.8318 254.899 55.4719 255.697 55.936C256.495 56.3841 257.403 56.6082 258.42 56.6082C260.064 56.6082 261.441 55.944 262.552 54.6157L264.994 56.9202C264.212 57.8964 263.241 58.6406 262.083 59.1527C260.925 59.6648 259.633 59.9209 258.209 59.9209Z" fill="#2A2459"/>
</g>
</svg>
