<svg width="322" height="59" viewBox="0 0 322 59" fill="none" xmlns="http://www.w3.org/2000/svg">
<g opacity="0.8" clip-path="url(#clip0_306_63)">
<path d="M32.6331 1.56824V30.8846C32.6331 32.2555 31.5772 33.2046 30.3101 33.2046H26.8256C26.6144 33.2046 26.5088 33.4155 26.5088 33.521V58.0919C27.3535 58.0919 28.1983 58.3028 29.1486 58.3028C44.8818 58.3028 57.6585 45.5428 57.6585 29.8301C57.6585 15.3828 46.7825 3.25551 32.6331 1.56824ZM31.9996 45.4373C29.9933 45.4373 28.515 43.7501 28.515 41.9573C28.515 39.9537 30.2045 38.4773 31.9996 38.4773C34.0058 38.4773 35.4841 40.1646 35.4841 41.9573C35.6953 43.8555 34.0058 45.4373 31.9996 45.4373ZM40.3414 45.4373C38.3351 45.4373 36.8568 43.7501 36.8568 41.9573C36.8568 39.9537 38.5463 38.4773 40.3414 38.4773C42.3476 38.4773 43.8259 40.1646 43.8259 41.9573C43.8259 43.7501 42.4532 45.4373 40.3414 45.4373ZM48.7887 45.4373C46.7825 45.4373 45.3042 43.7501 45.3042 41.9573C45.3042 39.9537 46.9937 38.4773 48.7887 38.4773C50.795 38.4773 52.2733 40.1646 52.2733 41.9573C52.2733 43.7501 50.795 45.4373 48.7887 45.4373Z" fill="#2A2459"/>
<path d="M29.1485 1.46277C13.4153 1.46277 0.638672 14.2228 0.638672 29.9355C0.638672 43.75 10.2476 55.0337 23.1298 57.67V32.0446C23.1298 30.8846 24.1857 29.9355 25.2416 29.7246H28.7262C28.9374 29.7246 29.0429 29.5137 29.0429 29.4082L29.1485 1.46277ZM23.6578 24.8737C21.6515 24.8737 20.1732 23.1864 20.1732 21.3937C20.1732 19.39 21.8627 17.9137 23.6578 17.9137C25.664 17.9137 27.1423 19.6009 27.1423 21.3937C27.1423 23.1864 25.5584 24.8737 23.6578 24.8737Z" fill="#2A2459"/>
<path d="M314.564 16.9646V27.721H300.203V16.9646H292.917V45.4374H300.203V33.9428H314.564V45.4374H321.638V16.9646H314.564ZM195.878 20.2337C194.717 17.7028 192.394 16.3319 190.071 16.3319C187.747 16.3319 185.319 17.7028 184.263 20.2337L172.753 45.5428H180.356L182.89 39.5319H197.673L200.207 45.5428H207.81L195.878 20.2337ZM184.897 33.8374L189.226 23.3974C189.437 23.081 189.543 23.081 189.754 23.081C189.965 23.081 190.282 23.081 190.282 23.3974L194.611 33.8374H184.897ZM110.982 11.9028C107.603 11.9028 105.491 13.6955 103.907 17.281L94.7209 38.6883L85.4288 17.1755C83.9505 13.6955 81.733 11.7974 78.3541 11.7974C75.1863 11.7974 72.0186 13.9065 72.0186 18.8628V45.3319H79.0932V19.8119L88.4909 41.0083C89.6524 44.0665 91.8699 45.8592 94.7209 45.8592C97.783 45.8592 99.7893 44.0665 100.951 41.0083L110.348 19.8119V45.6483H117.423V19.1792C117.318 14.2228 114.15 11.9028 110.982 11.9028ZM129.883 39.4265C129.566 39.4265 129.144 39.1101 129.144 38.6883V33.6265H146.883V27.8265H129.144V23.5028C129.144 23.1865 129.461 22.7646 129.883 22.7646H147.517V16.7537H126.398C123.864 16.7537 122.175 18.7574 122.175 20.9719V40.9028C122.175 43.0119 123.97 45.121 126.398 45.121H147.517V39.1101H129.883V39.4265ZM159.449 45.4374V23.7137C159.449 23.3974 159.766 22.9755 160.188 22.9755H177.822V16.9646H156.703C154.169 16.9646 152.48 18.9683 152.48 21.1828V45.3319L159.449 45.4374ZM288.271 31.3065C288.271 21.3937 283.942 16.7537 273.172 16.7537H270.637C259.867 16.7537 255.538 21.4992 255.538 31.3065C255.538 41.0083 259.867 45.8592 270.637 45.8592H272.96C283.942 45.6483 288.271 41.0083 288.271 31.3065ZM272.96 39.8483H270.637C264.83 39.8483 262.401 37.2119 262.401 31.3065C262.401 25.6119 264.407 22.7646 270.637 22.7646H272.96C278.979 22.7646 281.197 25.6119 281.197 31.3065C281.197 37.1065 278.979 39.8483 272.96 39.8483ZM235.792 12.5355H221.643C211.083 12.5355 206.86 17.9137 206.86 27.0883C206.86 28.5646 207.071 29.9355 207.176 31.0955C208.338 37.6337 212.245 41.641 222.065 41.641H225.233V45.3319H232.307V41.641H235.37C245.295 41.641 249.202 37.6337 250.258 31.0955C250.469 29.9355 250.575 28.5646 250.575 27.0883C250.469 17.9137 246.14 12.5355 235.792 12.5355ZM225.022 35.7355H221.854C216.997 35.7355 215.307 33.9428 214.251 30.9901C213.934 29.9355 213.934 28.4592 213.934 26.9828C213.934 20.9719 216.785 18.441 220.798 18.441H225.127V35.7355H225.022ZM243.183 31.3065C242.127 34.1537 240.332 36.0519 235.581 36.0519H232.413V18.6519H236.742C240.755 18.6519 243.606 21.1828 243.606 27.1937C243.5 28.7755 243.5 30.041 243.183 31.3065Z" fill="#2A2459"/>
</g>
<defs>
<clipPath id="clip0_306_63">
<rect width="321" height="58" fill="white" transform="translate(0.638672 0.830078)"/>
</clipPath>
</defs>
</svg>
