<svg width="87" height="86" viewBox="0 0 87 86" fill="none" xmlns="http://www.w3.org/2000/svg">
<g opacity="0.8">
<path fill-rule="evenodd" clip-rule="evenodd" d="M0.920898 0H86.5811V85.6602H0.920898V0ZM57.1355 12.046V8.03072H78.5506V12.046H70.5199V26.7689H65.1662V12.046H57.1355ZM21.5998 20.591L27.6437 8.03899H34.2439V26.7688H29.6179V13.4346L23.7078 24.9117H19.4917L13.5817 13.4346V26.7688H8.9557V8.03899H15.5559L21.5998 20.591ZM73.9122 71.3054C73.7951 72.0624 73.4939 72.6856 73.0046 73.1541C72.5445 73.5975 71.9213 73.9112 71.1517 74.0868C70.3862 74.2625 69.2695 74.3629 68.0858 74.3629C66.9021 74.3629 65.7728 74.2039 64.8568 73.8902C63.9701 73.5849 63.2674 73.0537 62.7697 72.3134C62.2678 71.5689 62.0168 70.4898 62.0168 69.1095V67.1688C62.0168 65.7885 62.2719 64.7094 62.7697 63.9649C63.2674 63.2245 63.9701 62.6934 64.8568 62.388C65.7728 62.0743 66.8603 61.9154 68.0858 61.9154C69.3113 61.9154 70.3862 62.0158 71.1517 62.1914C71.9213 62.3713 72.5445 62.685 73.0088 63.1242C73.4939 63.5926 73.7993 64.2158 73.9164 64.9729H78.5465C78.4211 63.4086 77.8857 62.0743 76.9613 61.0036C76.1164 60.029 74.9453 59.3138 73.4814 58.8788C72.0635 58.4564 70.198 58.2347 68.09 58.2347C65.8732 58.2347 63.9492 58.5526 62.3682 59.1799C60.7662 59.8199 59.5198 60.8823 58.6665 62.3462C57.8509 63.7474 57.4201 65.617 57.3908 67.9133V68.1266L57.6376 68.1349L57.3908 68.1433V68.3524C57.4201 70.6445 57.8467 72.5183 58.6665 73.9153C59.5198 75.3793 60.762 76.4416 62.3682 77.0816C63.945 77.709 65.8732 78.0269 68.09 78.0269C70.3068 78.0269 72.0635 77.8052 73.4814 77.3827C74.9411 76.9477 76.1123 76.2325 76.9613 75.258C77.8857 74.1914 78.4211 72.8571 78.5465 71.2928H73.9164L73.9122 71.3054Z" fill="#2A2459"/>
</g>
</svg>
