<svg width="338" height="81" viewBox="0 0 338 81" fill="none" xmlns="http://www.w3.org/2000/svg">
<g opacity="0.8">
<path fill-rule="evenodd" clip-rule="evenodd" d="M0.889648 59.1117C0.889648 64.6125 0.889648 67.6709 2.88702 69.668C4.88439 71.6656 7.94251 71.6656 13.4436 71.6656H51.1056C56.6067 71.6656 59.6648 71.6656 61.6622 69.668C63.6596 67.6709 63.6596 64.6125 63.6596 59.1117V21.4497C63.6596 15.9483 63.6596 12.8901 61.6622 10.8928C59.6648 8.89539 56.6067 8.89539 51.1056 8.89539H13.4436C7.94251 8.89539 4.88439 8.89539 2.88702 10.8928C0.889648 12.8901 0.889648 15.9483 0.889648 21.4497V59.1117Z" fill="#2A2459"/>
<path fill-rule="evenodd" clip-rule="evenodd" d="M148.785 17.3803L145.294 16.8464C143.364 16.5587 142.594 16.0419 142.594 15.0563C142.594 13.7828 143.577 12.9427 145.94 12.9427C148.302 12.9427 149.578 14.0528 149.578 15.4372H155.121C155.121 12.7328 152.334 8.48488 145.94 8.48488C140.19 8.48488 137.197 11.5651 137.197 15.0563C137.197 18.5471 139.749 20.4075 144.06 21.106L147.375 21.6129C149.675 21.9822 150.136 22.7831 150.136 23.7982C150.136 24.8132 149.166 25.7943 146.409 25.7943C143.652 25.7943 142.477 24.4145 142.477 23.2998H136.934C136.934 24.8252 138.605 30.2522 146.409 30.2522C152.528 30.2522 155.532 27.2483 155.532 23.7982C155.532 20.0612 153.097 18.0374 148.785 17.3803ZM330.892 59.2044L327.401 58.6705C325.47 58.3827 324.701 57.866 324.701 56.88C324.701 55.6068 325.684 54.7665 328.046 54.7665C330.409 54.7665 331.685 55.8766 331.685 57.2613H337.228C337.228 54.5568 334.441 50.3089 328.046 50.3089C322.296 50.3089 319.304 53.3891 319.304 56.88C319.304 60.3712 321.855 62.2316 326.167 62.9297L329.482 63.4367C331.782 63.8063 332.243 64.6071 332.243 65.6222C332.243 66.6373 331.272 67.6184 328.516 67.6184C325.759 67.6184 324.584 66.2383 324.584 65.1236H319.04C319.04 66.6489 320.712 72.0762 328.516 72.0762C334.635 72.0762 337.639 69.0723 337.639 65.6222C337.639 61.8849 335.204 59.8612 330.892 59.2044ZM270.191 66.6054C273.214 66.6054 275.383 64.2427 275.383 60.9881V60.986C275.383 57.7314 273.214 55.3687 270.191 55.3687C267.146 55.3687 264.936 57.7317 264.936 60.9869C264.936 64.2424 267.146 66.6054 270.191 66.6054ZM275.383 50.7193H280.933V72.101C280.933 77.7597 278.114 80.8301 272.208 80.8301H262.589V75.6731H271.159C274.075 75.6731 275.383 74.4928 275.383 71.4442V69.2856H274.904C273.618 70.6618 271.533 71.6655 268.984 71.6655C263.279 71.6655 259.387 67.1635 259.387 60.9869C259.387 54.8109 263.279 50.3089 268.984 50.3089C271.353 50.3089 273.515 51.161 274.904 52.6885C274.909 52.6946 274.93 52.7185 274.945 52.7354H275.383V50.7193ZM190.217 50.3089C187.818 50.3089 185.721 51.1515 184.311 52.7354H183.894V50.7193H178.345V71.6655H183.894V59.8413C183.894 57.2398 185.738 55.4665 188.357 55.4665C190.976 55.4665 192.82 57.2398 192.82 59.8413V71.6655H198.369V59C198.369 53.8697 195.015 50.3089 190.217 50.3089ZM226.254 71.6655H231.803V42.6538H226.254V71.6655ZM300.613 58.8587H310.671C309.917 56.5174 308.025 54.9767 305.624 54.9767C303.24 54.9767 301.361 56.5174 300.613 58.8587ZM316.514 61.1926C316.514 61.7461 316.465 62.2809 316.393 62.8062L316.404 62.8231H300.426C300.992 65.5545 302.99 67.4081 305.8 67.4081C307.589 67.4081 309.312 66.6217 310.203 65.237H316.133C314.719 69.3993 310.499 72.0762 305.8 72.0762C299.468 72.0762 294.772 67.4498 294.772 61.1926C294.772 54.8976 299.629 50.3089 305.624 50.3089C311.657 50.3089 316.514 54.8976 316.514 61.1926ZM285.828 71.6655H291.377V50.7193H285.828V71.6655ZM285.828 47.8114H291.377V42.6538H285.828V47.8114ZM251.154 61.1926C251.154 57.8745 248.908 55.4662 245.813 55.4662C242.74 55.4662 240.51 57.8745 240.51 61.1926C240.51 64.5106 242.74 66.9186 245.813 66.9186C248.958 66.9186 251.154 64.5639 251.154 61.1926ZM256.703 61.1926C256.703 67.4875 251.922 72.0762 245.813 72.0762C239.742 72.0762 234.961 67.4498 234.961 61.1926C234.961 54.8976 239.818 50.3089 245.813 50.3089C251.846 50.3089 256.703 54.8976 256.703 61.1926ZM217.546 61.1926C217.546 57.8745 215.3 55.4662 212.206 55.4662C209.133 55.4662 206.903 57.8745 206.903 61.1926C206.903 64.5106 209.133 66.9186 212.206 66.9186C215.351 66.9186 217.546 64.5639 217.546 61.1926ZM223.096 61.1926C223.096 67.4875 218.315 72.0762 212.206 72.0762C206.135 72.0762 201.354 67.4498 201.354 61.1926C201.354 54.8976 206.21 50.3089 212.206 50.3089C218.239 50.3089 223.096 54.8976 223.096 61.1926ZM94.3168 42.6538H88.7676V62.9365C88.7676 68.5951 91.586 71.6655 97.492 71.6655H102.878V66.5086H98.5408C95.6249 66.5086 94.3168 65.3283 94.3168 62.2797V55.8766H102.878V50.7193H94.3168V42.6538ZM140.279 66.919C137.206 66.919 135.064 64.5103 135.064 61.1926C135.064 57.8745 137.206 55.4662 140.279 55.4662C142.567 55.4662 144.288 56.5861 144.92 58.7253H150.658C149.912 53.6107 145.521 50.3089 140.278 50.3089C134.283 50.3089 129.514 54.8976 129.514 61.1926C129.514 67.4498 134.208 72.0762 140.278 72.0762C145.587 72.0762 149.928 68.5047 150.661 63.4835H144.937C144.408 65.598 142.613 66.919 140.279 66.919ZM165.691 50.3089C163.293 50.3089 161.195 51.1515 159.786 52.7354H159.369V42.6538H153.819V71.6655H159.369V59.8413C159.369 57.2398 161.213 55.4662 163.832 55.4662C166.451 55.4662 168.295 57.2398 168.295 59.8413V71.6655H173.844V59C173.844 53.8697 170.49 50.3089 165.691 50.3089ZM110.929 58.8587H120.987C120.233 56.5174 118.341 54.9767 115.94 54.9767C113.556 54.9767 111.677 56.5174 110.929 58.8587ZM126.83 61.1926C126.83 61.7461 126.78 62.2809 126.708 62.8062L126.719 62.8231H110.743C111.308 65.5545 113.306 67.4081 116.116 67.4081C117.905 67.4081 119.627 66.6217 120.519 65.237H126.448C125.034 69.3993 120.815 72.0762 116.116 72.0762C109.783 72.0762 105.088 67.4498 105.088 61.1926C105.088 54.8976 109.945 50.3089 115.94 50.3089C121.974 50.3089 126.83 54.8976 126.83 61.1926ZM183.561 24.6848H179.224C176.308 24.6848 175 23.5042 175 20.4556V14.0528H183.561V8.89527H175V0.830078H169.451V21.1124C169.451 26.7711 172.269 29.8415 178.175 29.8415H183.561V24.6848ZM99.509 13.6421C96.4849 13.6421 94.3168 16.0508 94.3168 19.3685C94.3168 22.6865 96.4849 25.0949 99.509 25.0949C102.554 25.0949 104.764 22.6865 104.764 19.3685C104.764 16.0508 102.554 13.6421 99.509 13.6421ZM94.3168 37.907H88.7676V8.89527H94.3168V10.9116H94.7956L94.7965 10.9104C96.1852 9.35346 98.3477 8.48488 100.717 8.48488C106.421 8.48488 110.313 13.0736 110.313 19.3685C110.313 25.6637 106.421 30.2525 100.717 30.2525C98.1672 30.2525 96.0822 29.2294 94.7965 27.8269H94.3168V37.907ZM222.788 17.0346H232.846C232.092 14.6934 230.2 13.153 227.799 13.153C225.415 13.153 223.536 14.6934 222.788 17.0346ZM216.947 19.3685C216.947 13.0736 221.804 8.48488 227.799 8.48488C233.832 8.48488 238.689 13.0736 238.689 19.3685C238.689 19.922 238.639 20.4569 238.567 20.9822L238.578 20.999H222.601C223.167 23.7304 225.165 25.5844 227.975 25.5844C229.764 25.5844 231.486 24.7979 232.378 23.4129H238.307C236.893 27.5753 232.674 30.2522 227.975 30.2522C221.642 30.2522 216.947 25.6257 216.947 19.3685ZM187.114 29.8415H192.663V8.89527H187.114V29.8415ZM187.114 5.98763H192.663V0.830078H187.114V5.98763ZM159.006 29.8415H164.555V8.89527H159.006V29.8415ZM159.006 5.98763H164.555V0.830078H159.006V5.98763ZM118.373 19.3685C118.373 22.6865 120.603 25.0946 123.676 25.0946C126.821 25.0946 129.016 22.7399 129.016 19.3685C129.016 16.0508 126.77 13.6421 123.676 13.6421C120.603 13.6421 118.373 16.0508 118.373 19.3685ZM112.823 19.3685C112.823 13.0736 117.681 8.48488 123.676 8.48488C129.709 8.48488 134.566 13.0736 134.566 19.3685C134.566 25.6637 129.785 30.2522 123.676 30.2522C117.605 30.2522 112.823 25.6257 112.823 19.3685ZM201.666 29.8415L195.347 8.89527H201.137L205.431 24.6845H206.31L210.605 8.89527H216.394L210.076 29.8415H201.666Z" fill="#2A2459"/>
</g>
</svg>
