<svg width="337" height="86" viewBox="0 0 337 86" fill="none" xmlns="http://www.w3.org/2000/svg">
<g opacity="0.8">
<path d="M265.86 61.6753L277.561 74.9697H269.954L260.909 64.7248V74.9697H254.604V50.1797H260.909V59.174L269.8 50.1797H277.253L265.86 61.6753ZM77.356 56.8783C81.9474 56.8783 84.0547 54.6854 84.0547 51.3789C84.0547 48.0724 81.9474 45.8795 77.356 45.8795H68.2589V56.8783H77.356ZM77.5616 39.969C85.4595 39.969 90.6676 44.0122 90.6676 51.3618C90.6676 58.7114 85.4595 62.7546 77.5616 62.7546H68.2589V74.9526H61.6631V39.969H77.5616ZM105.555 69.7616C109.256 69.7616 112.699 67.1061 112.699 62.5661C112.699 58.009 109.256 55.3707 105.555 55.3707C101.855 55.3707 98.4113 58.0262 98.4113 62.5661C98.4113 67.1233 101.855 69.7616 105.555 69.7616ZM105.555 49.4773C112.357 49.4773 119.107 53.8802 119.107 62.5833C119.107 71.2863 112.357 75.6893 105.555 75.6893C98.7539 75.6893 92.0039 71.2863 92.0039 62.5833C92.0039 53.8631 98.7539 49.4773 105.555 49.4773ZM135.177 69.7616C131.373 69.7616 128.581 67.0205 128.581 62.5661C128.581 58.1632 131.476 55.3707 135.177 55.3707C137.421 55.3707 139.374 56.4157 140.933 58.7628L146.33 55.6619C144.531 51.8072 140.625 49.4601 135.228 49.4601C128.187 49.4601 122.173 54.6683 122.173 62.5661C122.173 70.464 127.878 75.6721 135.228 75.6721C140.522 75.6721 144.068 73.2737 146.569 69.0249L141.361 66.181C139.888 68.2711 138.278 69.7616 135.177 69.7616ZM202.249 64.228C201.94 68.0313 201.203 68.8707 199.901 68.8707C199.011 68.8707 198.599 68.7679 197.983 68.6138L198.017 75.0383C198.017 75.0383 198.805 75.2781 200.244 75.2781C205.589 75.2781 207.594 71.8346 208.091 64.4849L208.69 55.8333H215.783V74.9355H222.087V50.1797H203.294L202.249 64.228ZM190.633 59.2768C190.033 56.1759 187.686 54.2742 184.191 54.2742C180.885 54.2742 178.384 56.4671 177.493 59.2768H190.633ZM184.38 49.4773C191.472 49.4773 196.475 54.634 196.475 61.8809V64.0738H177.373C177.767 67.8771 180.474 70.2756 184.174 70.2756C187.532 70.2756 188.92 68.8193 190.479 66.8834L195.481 69.3847C192.98 73.6334 189.537 75.6893 184.089 75.6893C177.184 75.6893 171.342 70.4469 171.342 62.5833C171.342 54.7197 177.184 49.4773 184.38 49.4773ZM244.924 59.2768C244.325 56.1759 241.978 54.2742 238.483 54.2742C235.176 54.2742 232.675 56.4671 231.784 59.2768H244.924ZM238.671 49.4773C245.764 49.4773 250.766 54.634 250.766 61.8809V64.0738H231.664C232.058 67.8771 234.765 70.2756 238.466 70.2756C241.824 70.2756 243.211 68.8193 244.77 66.8834L249.773 69.3847C247.271 73.6334 243.828 75.6893 238.38 75.6893C231.476 75.6893 225.634 70.4469 225.634 62.5833C225.634 54.7197 231.476 49.4773 238.671 49.4773ZM148.54 55.6791H155.941V74.9697H162.245V55.6791H169.646V50.1797H148.557V55.6791H148.54ZM290.067 69.7616C293.768 69.7616 297.211 67.1061 297.211 62.5661C297.211 58.009 293.768 55.3707 290.067 55.3707C286.367 55.3707 282.923 58.0262 282.923 62.5661C282.906 67.1233 286.367 69.7616 290.067 69.7616ZM290.067 49.4773C296.869 49.4773 303.619 53.8802 303.619 62.5833C303.619 71.2863 296.869 75.6893 290.067 75.6893C283.266 75.6893 276.516 71.2863 276.516 62.5833C276.516 53.8631 283.266 49.4773 290.067 49.4773ZM328.683 50.1626L321.847 67.5344L315.012 50.1626H306.771V74.9183H312.75V59.2425L319.38 74.9183H324.263L330.893 59.2425V74.9183H336.889V50.1626H328.683Z" fill="#2A2459"/>
<path d="M41.4807 85.6603H6.53135C4.01295 85.6603 2.52246 83.3989 2.52246 81.4287C2.52246 80.2637 3.00216 79.2015 3.75597 78.4477L19.0035 63.2002L41.4807 85.6603Z" fill="#2A2459" fill-opacity="0.6"/>
<path d="M6.53099 85.6602C3.89266 85.6602 0.586174 83.5529 0.586174 79.3556V32.3624C0.586174 26.0064 0.260667 21.5521 4.80065 17.0121L21.8128 0L51.9823 30.2209L3.7556 78.4476C2.98466 79.2185 2.52209 80.2636 2.52209 81.4285C2.52209 83.3987 3.99545 85.6602 6.53099 85.6602Z" fill="#2A2459"/>
</g>
</svg>
