<svg width="384" height="69" viewBox="0 0 384 69" fill="none" xmlns="http://www.w3.org/2000/svg">
<g opacity="0.8" clip-path="url(#clip0_306_45)">
<path d="M0.581055 47.6903V51.045C0.581055 51.6749 1.33882 51.9894 1.77604 51.5368C10.8623 42.1233 30.1798 27.802 65.015 25.4255C66.107 25.3513 66.9643 24.4536 66.9643 23.3587V2.7966C66.9643 1.73264 66.0487 0.906334 64.9916 1.0231C57.1381 1.8865 27.446 6.8869 5.37816 34.1762C2.28534 38.0014 0.581055 42.7696 0.581055 47.6903Z" fill="#2A2459"/>
<path d="M0.581055 56.5337V67.332C0.581055 68.1679 1.25783 68.8445 2.09315 68.8445H65.4529C66.2875 68.8445 66.9643 68.1679 66.9643 67.332V38.581C66.9643 37.482 66.083 36.5925 64.9848 36.5925C56.6741 36.5898 23.999 37.6819 1.73005 54.2148C1.00112 54.7568 0.581055 55.6243 0.581055 56.5337Z" fill="#2A2459"/>
<path d="M206.555 45.6627H192.276C187.911 45.6627 184.373 49.2028 184.373 53.5699V60.9373C184.373 65.3044 187.911 68.8452 192.276 68.8452H206.555C210.919 68.8452 214.457 65.3044 214.457 60.9366V53.5699C214.457 49.2035 210.919 45.6627 206.555 45.6627ZM208.428 60.4029C208.428 61.9951 207.138 63.2857 205.548 63.2857H193.282C191.691 63.2857 190.402 61.9951 190.402 60.4029V54.1043C190.402 52.5129 191.691 51.2209 193.282 51.2209H205.548C207.138 51.2209 208.428 52.5115 208.428 54.1036V60.4029Z" fill="#2A2459"/>
<path d="M145.197 45.6627H139.987V53.8571C139.987 54.1785 139.727 54.4395 139.405 54.4395H122.725C122.403 54.4395 122.142 54.1785 122.142 53.8571V48.2838C122.142 46.8359 120.97 45.6634 119.523 45.6634H116.769C116.447 45.6634 116.187 45.9237 116.187 46.2466V68.2628C116.187 68.5842 116.447 68.8452 116.769 68.8452H121.56C121.881 68.8452 122.142 68.5842 122.142 68.2621V60.7175C122.142 60.3947 122.403 60.1337 122.725 60.1337H139.405C139.727 60.1337 139.987 60.3947 139.987 60.7175V66.2234C139.987 67.6707 141.16 68.8438 142.607 68.8438H145.197C145.519 68.8438 145.78 68.5828 145.78 68.2607V46.2459C145.78 45.923 145.519 45.6627 145.197 45.6627Z" fill="#2A2459"/>
<path d="M179.518 45.6627H174.308V53.8571C174.308 54.1785 174.047 54.4395 173.725 54.4395H157.045C156.723 54.4395 156.462 54.1785 156.462 53.8571V48.2838C156.462 46.8359 155.289 45.6634 153.843 45.6634H151.089C150.767 45.6634 150.506 45.9237 150.506 46.2466V68.2628C150.506 68.5842 150.767 68.8452 151.089 68.8452H155.879C156.201 68.8452 156.462 68.5842 156.462 68.2621V60.7175C156.462 60.3947 156.723 60.1337 157.045 60.1337H173.725C174.047 60.1337 174.308 60.3947 174.308 60.7175V66.2234C174.308 67.6707 175.481 68.8438 176.927 68.8438H179.517C179.839 68.8438 180.1 68.5828 180.1 68.2607V46.2459C180.1 45.923 179.839 45.6627 179.518 45.6627Z" fill="#2A2459"/>
<path d="M316.764 45.6627H297.728C292.219 45.6627 287.754 50.1315 287.754 55.6429V68.8438H289.265C293.852 68.8438 293.729 64.4376 293.729 64.4376V55.8641C293.729 53.2828 295.82 51.1899 298.4 51.1899H310.789C311.111 51.1899 311.372 51.4503 311.372 51.7731V68.8445H314.466C316.057 68.8445 317.346 67.5539 317.346 65.9617V46.2459C317.346 45.923 317.085 45.6627 316.764 45.6627Z" fill="#2A2459"/>
<path d="M378.575 63.6182H365.354C363.19 63.6182 361.435 61.8625 361.435 59.6968V54.5872C361.435 52.4215 363.189 50.6652 365.354 50.6652H378.575C381.335 50.6652 383.574 48.4253 383.574 45.6627H363.87C359.566 45.6627 356.078 49.1534 356.078 53.4594V61.0479C356.078 65.3539 359.566 68.8445 363.87 68.8445H383.574V68.6213C383.574 65.8587 381.335 63.6182 378.575 63.6182Z" fill="#2A2459"/>
<path d="M243.919 45.6627H223.793C221.178 45.6627 219.06 47.7824 219.06 50.3994V68.8445H222.554C223.924 68.8445 225.034 67.7339 225.034 66.3622V51.7731C225.034 51.4503 225.295 51.1899 225.617 51.1899H242.094C242.416 51.1899 242.677 51.4503 242.677 51.7731V66.3615C242.677 67.7332 243.788 68.8438 245.158 68.8438H248.652V50.3994C248.652 47.7824 246.533 45.6627 243.919 45.6627Z" fill="#2A2459"/>
<path d="M275.315 45.6627H261.036C256.671 45.6627 253.133 49.2028 253.133 53.5699V60.9373C253.133 65.3044 256.67 68.8452 261.036 68.8452H275.315C279.679 68.8452 283.217 65.3044 283.217 60.9366V53.5699C283.216 49.2035 279.679 45.6627 275.315 45.6627ZM277.188 60.4029C277.188 61.9951 275.898 63.2857 274.308 63.2857H262.042C260.451 63.2857 259.161 61.9951 259.161 60.4029V54.1043C259.161 52.5129 260.451 51.2209 262.042 51.2209H274.308C275.898 51.2209 277.188 52.5115 277.188 54.1036V60.4029Z" fill="#2A2459"/>
<path d="M106.866 45.673L102.653 45.6847C102.377 45.6847 102.025 45.7465 101.363 46.522L87.0526 63.1833C86.9812 63.2671 86.89 63.3125 86.7918 63.3111C86.5852 63.3131 86.417 63.1112 86.417 62.866L86.4212 49.5799C86.4212 46.3441 84.2673 45.6641 82.4635 45.6641L81.0537 45.6709C80.7942 45.673 80.5835 45.923 80.5814 46.2314L80.5416 51.137L80.5361 66.4391C80.5368 67.7373 81.4223 68.7964 82.5157 68.7964C82.5321 68.7964 85.0285 68.8452 85.616 68.8459C86.24 68.8459 88.1213 68.7999 88.146 68.7999H88.1824C89.1687 68.7999 90.0075 67.797 90.7467 66.911C90.8311 66.8107 90.9142 66.7104 90.9959 66.617L104.414 50.8616C104.478 50.7854 104.568 50.7414 104.66 50.7407C104.855 50.7414 105.012 50.9296 105.012 51.1631L105.008 64.395H104.999V66.0187C104.999 67.5793 106.264 68.8459 107.825 68.8459H110.167C110.528 68.8459 110.821 68.5526 110.821 68.192V66.6424L110.824 50.5395C110.826 47.6759 109.199 45.673 106.866 45.673Z" fill="#2A2459"/>
<path d="M348.58 45.673L344.367 45.6847C344.091 45.6847 343.739 45.7465 343.076 46.522L328.767 63.1833C328.695 63.2671 328.603 63.3125 328.505 63.3111C328.298 63.3131 328.13 63.1112 328.13 62.866L328.135 49.5799C328.135 46.3441 325.981 45.6641 324.177 45.6641L322.766 45.6709C322.507 45.673 322.297 45.923 322.294 46.2314L322.254 51.137L322.248 66.4391C322.249 67.7373 323.134 68.7964 324.229 68.7964C324.245 68.7964 326.74 68.8452 327.329 68.8459C327.953 68.8459 329.834 68.7999 329.859 68.7999H329.896C330.882 68.7999 331.721 67.797 332.459 66.911C332.544 66.8107 332.627 66.7104 332.708 66.617L346.127 50.8616C346.191 50.7854 346.281 50.7414 346.372 50.7407C346.568 50.7414 346.724 50.9296 346.726 51.1631L346.722 64.395H346.711V66.0187C346.711 67.5793 347.976 68.8459 349.536 68.8459H351.879C352.24 68.8459 352.533 68.5526 352.533 68.192V66.6424L352.536 50.5395C352.539 47.6759 350.913 45.673 348.58 45.673Z" fill="#2A2459"/>
<path d="M162.439 0.830078L128.785 0.841068C128.607 0.841755 128.463 0.985997 128.463 1.1639C128.467 4.8201 131.43 7.78188 135.084 7.78188L159.631 7.77707C161.84 7.77569 163.633 9.56842 163.633 11.7801V14.6959L137.876 14.698C137.36 14.698 136.942 15.1169 136.942 15.6335C136.942 18.2587 139.068 20.3887 141.692 20.3887L163.633 20.3907V23.5661C163.633 25.6315 161.959 27.3068 159.894 27.3068L135.044 27.313C131.699 27.3116 128.976 29.9526 128.979 33.1981L128.98 34.0766C128.979 34.1776 129.061 34.2552 129.163 34.2559H162.367C167.868 34.2559 172.328 29.7933 172.328 24.2887V10.7258C172.328 5.26038 167.901 0.830078 162.439 0.830078Z" fill="#2A2459"/>
<path d="M113.485 0.830078L111.382 0.832139L102.29 0.835573L99.571 0.836947L91.101 0.839008C86.087 0.842442 80.2617 4.93824 80.2617 10.2209L80.2665 23.8079L80.2672 25.036C80.27 30.316 86.0987 34.409 91.1127 34.4104L102.303 34.4022H105.914L113.5 34.3987C118.511 34.3987 124.334 30.2974 124.332 25.0209L124.327 10.2058C124.327 4.92519 118.5 0.828705 113.485 0.830078ZM111.736 27.4256L102.297 27.4291L92.8685 27.4339C92.6179 27.4352 92.3619 27.4078 92.108 27.3583C92.0537 27.3446 92.0002 27.3281 91.9515 27.3116C91.9261 27.302 91.9 27.2951 91.8739 27.2883C91.6968 27.2388 91.5431 27.1983 91.3934 27.1351C91.3323 27.1124 91.2747 27.0801 91.2157 27.0479L91.1374 27.0046L91.0846 26.9778C90.972 26.9222 90.8553 26.8624 90.7482 26.7944C90.6885 26.7504 90.6261 26.7024 90.567 26.6529L90.4956 26.5945L90.4346 26.5444C90.3488 26.4805 90.263 26.4139 90.184 26.339C90.1209 26.2765 90.0632 26.2085 90.0076 26.1398L89.9541 26.078L89.9081 26.0244C89.8408 25.9461 89.775 25.8719 89.7166 25.7895C89.659 25.7105 89.6116 25.6226 89.5635 25.5388L89.5251 25.4736L89.4942 25.4207C89.4448 25.3334 89.3968 25.2476 89.3569 25.1597C89.3123 25.0621 89.2759 24.9605 89.2423 24.8595L89.2238 24.8073L89.2135 24.7709C89.1744 24.6665 89.1421 24.5641 89.1167 24.4549C89.0934 24.3574 89.0783 24.2523 89.0639 24.1513L89.057 24.0923L89.0467 24.0243C89.0254 23.8821 89.0028 23.733 89.0028 23.5696L88.9993 11.6792C88.9986 11.4264 89.0323 11.1922 89.0652 11.0136C89.0817 10.9161 89.105 10.822 89.1311 10.7279C89.1737 10.5678 89.2142 10.4353 89.2615 10.3082C89.2993 10.2106 89.3425 10.1124 89.3885 10.0197C89.4482 9.89606 89.5107 9.77998 89.5828 9.66252C89.6404 9.57529 89.6953 9.49149 89.7544 9.40701C89.836 9.29505 89.9246 9.19202 90.0145 9.09311C90.0811 9.01755 90.149 8.94337 90.2204 8.874C90.3268 8.77921 90.4346 8.69404 90.5451 8.61093L90.5931 8.57109C90.6542 8.52232 90.7167 8.47836 90.7846 8.43578C90.9047 8.35404 91.0338 8.29085 91.1642 8.22628L91.2321 8.19125C91.2946 8.15897 91.357 8.126 91.4195 8.10402C91.5698 8.04289 91.7153 7.99824 91.8849 7.95703L91.9556 7.93436C92.0091 7.91788 92.0606 7.90277 92.1176 7.88971C92.3715 7.83889 92.6179 7.81347 92.8609 7.81553L102.294 7.8121L111.382 7.80866L111.726 7.8066C113.853 7.80523 115.586 9.53545 115.588 11.6675L115.592 23.5613C115.593 25.692 113.864 27.4236 111.736 27.4256Z" fill="#2A2459"/>
<path d="M218.575 16.7098C219.813 15.0943 220.551 13.0742 220.551 10.881C220.551 5.37579 216.091 0.913208 210.59 0.913208H177.386C177.284 0.913895 177.201 0.991511 177.203 1.09248L177.201 1.97099C177.198 5.21644 179.921 7.85745 183.267 7.85608L208.911 7.86294C210.976 7.86294 212.649 9.53753 212.649 11.6036C212.649 13.3208 211.285 14.7165 209.583 14.7728L186.11 14.7783C185.594 14.7783 185.175 15.1973 185.175 15.7145C185.175 18.3404 187.303 20.469 189.926 20.469H210.967C211.016 20.469 211.065 20.4663 211.115 20.4649C212.845 20.491 214.239 21.9005 214.239 23.6376C214.239 25.7037 212.566 27.3783 210.501 27.3783L183.268 27.3851C179.922 27.3838 177.199 30.0248 177.202 33.2695L177.203 34.1487C177.202 34.2497 177.284 34.3266 177.387 34.3273H212.421C217.923 34.3273 222.382 29.8654 222.382 24.3602C222.381 21.2349 220.887 18.46 218.575 16.7098Z" fill="#2A2459"/>
</g>
<defs>
<clipPath id="clip0_306_45">
<rect width="383" height="68" fill="white" transform="translate(0.581055 0.830078)"/>
</clipPath>
</defs>
</svg>
