<svg width="222" height="65" viewBox="0 0 222 65" fill="none" xmlns="http://www.w3.org/2000/svg">
<g opacity="0.8" clip-path="url(#clip0_307_73)">
<path d="M211.656 56.5584C216.011 56.5584 219.096 55.7735 221.395 54.0829V46.415C219.036 48.0452 216.193 49.0716 212.2 49.0716C205.486 49.0716 202.703 43.8791 202.703 35.6678C202.703 27.0338 206.091 22.6263 212.261 22.6263C215.89 22.6263 219.459 23.8942 221.335 25.1018V17.132C219.338 16.0452 215.89 15.2603 211.172 15.2603C199.135 15.2603 192.904 23.8942 192.904 35.9697C192.965 49.1923 199.074 56.5584 211.656 56.5584ZM152.799 53.0565V45.3886C149.895 47.381 144.935 49.132 140.398 49.132C133.502 49.132 130.901 45.8716 130.478 39.2301H153.222V34.2791C153.222 20.4527 147.113 15.2603 137.737 15.2603C126.244 15.2603 120.799 24.015 120.799 36.0301C120.799 49.8565 127.635 56.5584 139.612 56.5584C145.601 56.5584 150.016 54.9282 152.799 53.0565ZM66.479 15.9848V31.6829H53.897V15.9848H44.4604V55.7735H53.897V39.1697H66.479V55.7735H75.9155V15.9848H66.479ZM118.44 48.2867H114.266V15.9848H86.8038V19.3659C86.8038 29.0867 86.1989 41.6452 82.8719 48.2867H79.8474V64.8301H88.558V55.7735H109.669V64.8301H118.38V48.2867H118.44ZM182.863 55.7735H193.569L178.447 34.3395L191.755 15.9848H182.258L168.95 34.3395V15.9848H159.513V55.7735H168.95V36.2112L182.863 55.7735ZM137.495 22.6263C142.153 22.6263 143.604 26.4904 143.604 31.5018V32.2867H130.478C130.72 25.947 133.018 22.6263 137.495 22.6263ZM104.83 48.2867H91.522C94.1231 42.3093 94.849 31.4414 94.849 24.5584V23.3508H104.83V48.2867Z" fill="#2A2459"/>
<path d="M36.5967 55.7735H26.9787V8.25649H22.6839C14.8202 8.25649 10.7068 12.181 10.7068 18.0376C10.7068 24.6791 13.5499 27.7584 19.4174 31.6829L24.2567 34.9433L10.3439 55.7735H0L12.5215 37.1772C5.32316 32.0452 1.2703 27.0339 1.2703 18.581C1.2703 8.01498 8.65014 0.830078 22.6234 0.830078H36.5362V55.7735H36.5967Z" fill="#2A2459"/>
</g>
<defs>
<clipPath id="clip0_307_73">
<rect width="222" height="64" fill="white" transform="translate(0 0.830078)"/>
</clipPath>
</defs>
</svg>
